++++++++++++++++++++++++++++---- STEP UP - 2  THE STREETS +++++++++++++++----------

 Directed by  Jon Chu   (as Jon M. Chu) 
  
---++++++++++++++++++++++++++++++ CAST --------------------++++++++++++++++++++++++

 Robert Hoffman  ...  Chase 

 Adam G. Sevani  ...  Moose 

 Cassie Ventura  ...  Sophie 

 Danielle Polanco ...  Missy 

 Christopher Scott ...  Hair 

 Mari Koda ...  Jenny Kido 

 Janelle Cambridge ...  Fly 

 Luis Rosado ...  Monster 

 Harry Shum Jr. ...  Cable
 
 LaJon Dantzler ...  Smiles 

 Telisha Shaw ...  Felicia

-+++++++++++++++++++++++++++----- Storyline-------------------+++++++++++++++++++++

Romantic sparks occur between two dance students from different backgrounds at the Maryland School of the Arts.

+++++++++++++++++++++++++++++++++++++++++++++++++++++++++++++++++++++++++++++++++++ 

Box Office

Budget:$23,000,000 (estimated) 
Opening Weekend:$22,125,429 (USA) (17 February 2008) (2470 Screens) 
Gross:$58,017,783 (USA) (22 May 2008) 
 
Technical Specs
Runtime:98 min 
Sound Mix:SDDS  | Dolby Digital  | DTS 
Color:Color 
+++++++++++++++++++++++++++++++++++++++++++++++++++++++++++++++++++++++++++++++++++

Format                           : AVI
Format/Info                      : Audio Video Interleave
File size                        : 701 MiB
Duration                         : 1h 37mn
Overall bit rate                 : 1 002 Kbps
Writing application              : VirtualDubMod 1.5.10.1 (build 2366/release)
Writing library                  : VirtualDubMod build 2366/release

Video
ID                               : 0
Format                           : MPEG-4 Visual
Format profile                   : Advanced Simple@L5
Format settings, BVOP            : Yes
Format settings, QPel            : No
Format settings, GMC             : No warppoints
Format settings, Matrix          : Default (H.263)
Codec ID                         : DX50
Codec ID/Hint                    : DivX 5
Duration                         : 1h 37mn
Bit rate                         : 865 Kbps
Width                            : 656 pixels
Height                           : 346 pixels
Display aspect ratio             : 1.896
Frame rate                       : 23.976 fps
Color space                      : YUV
Chroma subsampling               : 4:2:0
Bit depth                        : 8 bits
Scan type                        : Progressive
Bits/(Pixel*Frame)               : 0.159
Stream size                      : 605 MiB (86%)
Writing library                  : XviD 1.0.3 (UTC 2004-12-20)

Audio
ID                               : 1
Format                           : MPEG Audio
Format version                   : Version 1
Format profile                   : Layer 3
Codec ID                         : 55
Codec ID/Hint                    : MP3
Duration                         : 1h 37mn
Bit rate mode                    : Constant
Bit rate                         : 128 Kbps
Channel(s)                       : 2 channels
Sampling rate                    : 48.0 KHz
Video delay                      : 2s 352ms
Stream size                      : 89.6 MiB (13%)
Alignment                        : Split accross interleaves
Interleave, duration             : 42 ms (1.00 video frame)
Interleave, preload duration     : 504 ms


++++++++++++++++++++++++ SCREENSHOT------------++++++++++++++++++++++++++++++++++++